<?xml version="1.0" encoding="utf-8"?>
<!-- Generator: Adobe Illustrator 25.2.1, SVG Export Plug-In . SVG Version: 6.00 Build 0)  -->
<svg version="1.0"
	 id="svg874" xmlns:cc="http://creativecommons.org/ns#" xmlns:dc="http://purl.org/dc/elements/1.1/" xmlns:rdf="http://www.w3.org/1999/02/22-rdf-syntax-ns#" xmlns:svg="http://www.w3.org/2000/svg"
	 xmlns="http://www.w3.org/2000/svg" xmlns:xlink="http://www.w3.org/1999/xlink" x="0px" y="0px" viewBox="0 0 1366.6 1369.6"
	 style="enable-background:new 0 0 1366.6 1369.6;" xml:space="preserve">
<style type="text/css">
	.st0{clip-path:url(#SVGID_2_);fill:#DE3636;}
	.st1{clip-path:url(#SVGID_4_);fill:#F5F5F5;}
	.st2{clip-path:url(#SVGID_6_);fill:#23218B;}
	.st3{fill:#0D2C99;}
	.st4{fill-rule:evenodd;clip-rule:evenodd;fill:#0D2C99;}
</style>
<g>
	<g>
		<g>
			<defs>
				<ellipse id="SVGID_1_" cx="1097.7" cy="1100.2" rx="263.5" ry="263.7"/>
			</defs>
			<clipPath id="SVGID_2_">
				<use xlink:href="#SVGID_1_"  style="overflow:visible;"/>
			</clipPath>
			<rect id="rect1065" x="828.8" y="841.1" class="st0" width="537.8" height="518.1"/>
		</g>
	</g>
	<g>
		<g>
			<defs>
				<ellipse id="SVGID_3_" cx="1097.7" cy="1100.2" rx="263.5" ry="263.7"/>
			</defs>
			<clipPath id="SVGID_4_">
				<use xlink:href="#SVGID_3_"  style="overflow:visible;"/>
			</clipPath>
			<rect id="rect1067" x="828.8" y="927.5" class="st1" width="537.8" height="345.4"/>
		</g>
	</g>
	<g>
		<g>
			<defs>
				<ellipse id="SVGID_5_" cx="1097.7" cy="1100.2" rx="263.5" ry="263.7"/>
			</defs>
			<clipPath id="SVGID_6_">
				<use xlink:href="#SVGID_5_"  style="overflow:visible;"/>
			</clipPath>
			<rect id="rect1069" x="828.8" y="1013.8" class="st2" width="537.8" height="172.7"/>
		</g>
	</g>
</g>
<path id="path932" class="st3" d="M1097.7,830.8c-148.4,0-268.9,120.7-268.9,269.4s120.5,269.4,268.9,269.4s268.9-120.8,268.9-269.4
	S1246.1,830.8,1097.7,830.8 M1097.7,841.1c142.2,0,258.6,116.6,258.6,259s-116.4,259.1-258.6,259.1s-258.6-116.6-258.6-259.1
	C839.1,957.8,955.5,841.1,1097.7,841.1"/>
<path id="path942" class="st4" d="M725.4,725.4c-0.3,0-33.5-4.3-37.3-4.4c-0.4,0-0.8,0-1.4-0.1c-3-0.1-8.2-0.3-11.9-0.6
	c-2.6-0.2-5.6-2.4-5.7-5c-0.1-1.3-0.1-2.9-0.1-4.5c0-1.4,0-2.7-0.1-4.1c0-5.7,0.6-15.1,1-17.3c0-0.1,0.1-0.3,0.2-0.4
	c0.2-0.3,0.6-0.5,1-0.5h7.3c1.1,0,1.2,2.9,1,4.6c0,0.1,0,0.2,0,0.3c0,1.6-0.3,13.2-0.3,14.8c0,1.7,3.2,3.1,7.3,2.9
	c4-0.2,39-2.2,39.7-2.2l0,0h0.2c4.1-0.2,73.2-3.2,80.6-3.6c7.6-0.3,8.8-11.6,8.7-20.2c-0.1-5.4-1.3-10.7-2.1-13.9
	c-0.5-1.9-2.3-3.2-4.2-3.2l-8.8-0.2c-1.3,0-2.4-1.2-2.3-2.5s1.2-2.2,2.5-2.2l21.8,0.9c2.2,0.1,3.9,1.7,5,3.6
	c0.8,1.4,1.9,2.6,3.6,2.6c1.1,0,1.8-0.4,2.3-1.1c0.1-0.1,0.2-0.3,0.3-0.4c1.6-1.9,3.4-4.1,5.9-4s4.5,2.2,4.5,4.7
	c-0.1,4.2-0.2,10.1-0.3,13.2c0,5.1,2.2,9.9,5.4,10c1.3,0.1,2.3-0.5,2.9-1.3c1.6-1.9,3.5-3.9,6-3.8l7.4,0.3c2.5,0.1,4.4,2.3,5.3,4.6
	c0.6,1.7,1.8,3.2,3.8,3.2c2.1,0.1,3.3-1.3,4.1-3c1.1-2.3,3.1-4.2,5.6-4.1l47.8,1.7c1.6,0.1,2.9,1.2,4.1,2.4c0.6,0.6,1.3,1.2,2,1.7
	c0.4,0.2,0.8,0.4,1.3,0.4c1,0,1.8-0.4,2.4-1c1.5-1.4,3.3-2.9,5.3-2.8l19.1,0.5c1.4,0,2.7-0.5,3.7-1.6l0.4-0.4
	c1.8-2.1,5.1-2.1,7.2-0.3c3.1,2.7,7.5,5.9,10.8,5.8c5.6,0,14.8-7.7,18.3-15.6c1.6-3.5,2.5-6.6,2.9-8.9c0.5-2.5,2.7-4.7,5.3-4.7
	c21.8-0.1,112.4-0.3,121.2-0.3c10-0.2,11-26,10.3-24.3c-0.4,1-1.7,4.4-2.7,7c-0.7,2-2.7,3.2-4.8,3.1l-136.3-11.1
	c-1.5-0.1-2.8-0.9-3.8-2c-2-2.2-6.2-5.7-12.6-6.1c-6-0.4-10.3,2.2-12.6,4.2c-1.3,1.2-3.1,1.9-4.9,1.6l-115.8-18.7
	c-1.5-0.2-2.7-1.2-3.6-2.4c-2.6-3.6-9.1-10.7-20.3-10.9c-6.6-0.3-10.3,1.4-12.4,3.2c-1.9,1.6-4.5,3.1-6.9,2.7
	c-120.1-21.3-132.2-34-133.3-35.9c-0.1-0.2-0.1-0.3-0.1-0.5c-0.2-2.2-1.7-17.4-1.7-39.5c0-88.9-37.5-139.8-52.6-139.8
	c-0.1,0-0.1,0-0.2,0s-0.1,0-0.2,0c-15.1,0-52.6,50.8-52.6,139.8c0,22.2-1.4,37.3-1.7,39.5c0,0.2,0,0.4-0.1,0.5
	c-1.2,1.9-13.2,14.6-133.3,35.9c-2.4,0.4-5-1.1-6.9-2.7c-2.1-1.7-5.8-3.4-12.4-3.2c-11.2,0.3-17.7,7.4-20.3,10.9
	c-0.9,1.2-2.1,2.1-3.6,2.4l-115.8,18.7c-1.8,0.3-3.5-0.5-4.9-1.6c-2.3-2-6.6-4.6-12.6-4.2c-6.4,0.5-10.6,3.9-12.6,6.1
	c-1,1.1-2.3,1.9-3.8,2l-136.3,11.1c-2.1,0.2-4.1-1.1-4.8-3.1c-1-2.6-2.3-6-2.7-7c-0.7-1.7,0.3,24.1,10.4,24.3
	c8.8,0,99.5,0.3,121.2,0.3c2.6,0,4.8,2.1,5.3,4.7c0.5,2.3,1.4,5.4,2.9,8.9c3.6,8,12.7,15.6,18.3,15.6c3.3,0.1,7.7-3.1,10.8-5.8
	c2.1-1.8,5.3-1.8,7.2,0.3l0.4,0.4c0.9,1.1,2.3,1.6,3.7,1.6l19.1-0.5c2.1-0.1,3.8,1.4,5.3,2.8c0.6,0.6,1.4,1,2.4,1
	c0.5,0,1-0.1,1.3-0.4c0.7-0.5,1.4-1.1,2-1.7c1.2-1.2,2.5-2.3,4.1-2.4l47.8-1.7c2.5-0.1,4.6,1.9,5.6,4.1c0.8,1.7,2,3.1,4.1,3
	c2,0,3.2-1.5,3.8-3.2c0.9-2.4,2.8-4.5,5.3-4.6l7.4-0.3c2.5-0.1,4.4,1.9,6,3.8c0.7,0.8,1.6,1.4,2.9,1.3c3.2-0.2,5.4-4.9,5.4-10
	c-0.1-3-0.2-9-0.3-13.2c0-2.5,1.9-4.6,4.5-4.7c2.5-0.1,4.3,2,5.9,4c0.1,0.1,0.2,0.3,0.3,0.4c0.5,0.6,1.3,1.1,2.4,1.1
	c1.7,0,2.9-1.3,3.6-2.6c1.1-1.9,2.8-3.6,5-3.6l21.8-0.9c1.3-0.1,2.4,0.9,2.5,2.2s-1,2.5-2.3,2.5l-8.8,0.2c-2,0-3.7,1.3-4.2,3.2
	c-0.9,3.2-2,8.5-2.1,13.9c-0.2,8.7,1,19.9,8.7,20.2c7.6,0.3,80.1,3.5,80.8,3.6l0,0c0.7,0,35.7,2,39.7,2.2c4.1,0.2,7.3-1.2,7.3-2.9
	c0-1.6-0.3-13.2-0.3-14.8c0-0.1,0-0.2,0-0.3c-0.2-1.7-0.1-4.6,1-4.6h7.3c0.4,0,0.8,0.1,1,0.5c0.1,0.1,0.1,0.3,0.2,0.4
	c0.3,2.2,1,11.6,1,17.3c0,1.3-0.1,2.7-0.1,4.1c0,1.6,0,3.1-0.1,4.4c-0.1,2.6-3.1,4.8-5.7,5c-3.6,0.2-8.5,0.4-11.5,0.6
	c-0.7,0-1.3,0.1-1.8,0.1c-3.9,0.2-37.1,4.4-37.3,4.4l0,0l0,0c-0.9,0.1-71.1,8.7-73,9s-1.7,3.6,0,3.6c0.3,0,1.9,0.1,4.4,0.3
	c13.1,0.8,51.9,3.2,77,2.5c25.8-0.9,57.5-2,66.2-2.3c1.5-0.1,2.9,0.6,3.9,1.7c3.6,4.2,13.1,14.5,20.9,17.4c-0.7,0.5-0.9,0.7,0.1,0.7
	h3.6h0.1h4c1,0,0.7-0.3,0.1-0.7c7.8-2.9,17.3-13.2,20.9-17.4c1-1.1,2.4-1.8,3.9-1.7c8.8,0.3,40.5,1.4,66.2,2.3
	c25.1,0.7,64-1.7,77-2.5c2.6-0.2,4.1-0.3,4.4-0.3c1.7,0,1.9-3.2,0-3.6C796.5,734.1,725.6,725.4,725.4,725.4"/>
<path id="path946" class="st3" d="M623.8,0C279.3,0,0,279.3,0,623.8s279.3,623.8,623.8,623.8c50.5,0,99.5-5.9,146.5-17.3
	c-5.8-15.2-10.6-31-14.2-47.2c-42.5,10-86.8,15.3-132.3,15.3c-317.4,0-574.6-257.3-574.6-574.6c0-317.4,257.3-574.6,574.6-574.6
	c317.4,0,574.6,257.3,574.6,574.6c0,48.7-6,96-17.5,141.2c16.1,3.9,31.8,8.9,46.9,14.9c12.9-49.9,19.7-102.3,19.7-156.1
	C1247.5,279.3,968.3,0,623.8,0"/>
</svg>
